<?xml version="1.0" encoding="utf-8"?>
<!-- Generator: Adobe Illustrator 23.0.1, SVG Export Plug-In . SVG Version: 6.00 Build 0)  -->
<svg version="1.1" id="Layer_1" xmlns="http://www.w3.org/2000/svg" xmlns:xlink="http://www.w3.org/1999/xlink" x="0px" y="0px"
	 viewBox="0 0 384 384" style="enable-background:new 0 0 384 384;" xml:space="preserve">
<style type="text/css">
	.st0{fill:#FFFFFF;}
</style>
<path class="st0" d="M282.7,252c-4.5-0.2-9-0.4-13.4-0.5c-8.8-0.1-17.1-2.4-25.6-4.6c-14.8-3.8-29.1-8.9-42.8-15.6
	c-3.8-1.9-7.5-4-11-6.4c-7.2-4.9-14.6-9.5-22.5-13.4c-3.7-1.8-7.1-4.3-10.7-6.4c-1.1-0.7-2.3-1.3-3.5-1.8c-2.8-1-5-0.1-6.2,2.6
	c-0.8,1.7-1.3,3.4-1.8,5.2c-1.8,6.4-4.3,12.4-7.8,18c-4.8,7.7-11.5,12.8-19.9,16.3c-12.8,5.3-25.2,4.3-37.3-1.7
	c-10-4.9-18.1-11.9-23.9-21.4c-9.9-16-6.6-37.1,7.4-49c3.2-2.7,6.7-4.9,10.8-5.8c8.7-2.1,17.3,2.3,21,10.6c4.9,10.8,2.2,23.1-7,31
	c-2.1,1.8-4.6,3.3-6.9,4.9c-1.1,0.8-2.3,1.5-3.2,2.5c-1.9,1.8-2.2,4.1-0.8,6.4c0.8,1.3,1.9,2.6,3,3.7c4.6,4.1,9.7,7.4,16.1,7.8
	c8.8,0.6,16.7-1.8,23.5-7.8c9-8,13.2-18,12.9-29.9c-0.1-5.4-2.1-10.4-4.5-15.2c-1.7-3.4-3.7-6.7-5.9-9.7c-6-8-12.2-15.9-18.3-23.9
	c-1.1-1.4-2-2.9-3-4.4c-0.4-0.6-0.7-1.4-0.9-2.1c-0.6-2.1-0.4-4.1,1.3-5.7c1.7-1.6,3.8-1.8,5.9-1.1c2.5,0.8,4.4,2.5,6,4.4
	c4.4,5.3,8.8,10.6,13.1,15.9c7.7,9.5,16.3,18.2,25.2,26.6c11.7,11,24.5,20.5,38.3,28.6c8.7,5.1,17.6,10,27.2,13.4
	c6.1,2.2,12.4,3.9,18.7,5.8c5.5,1.7,10.9,3.5,16.5,4.8c7.3,1.8,14.7,3,22.3,3.2c2.3,0.1,4.6-0.1,6.9-0.5c3.2-0.6,5.5-2.6,6.6-5.7
	c0.7-1.8,1.2-3.6,1.7-5.4c4.1-13.8,16.1-22.9,30.2-22.7c8.5,0.2,14.6,4.4,18.3,12c3,6.2,1.3,12.1-2.6,17.5
	c-4.7,6.5-11,11.1-18.2,14.5c-2.9,1.3-5.8,2.5-8.8,3.6c-5.5,2-11.2,1.8-16.9,1.6C289.1,252.4,285.9,252.2,282.7,252L282.7,252z
	 M261.3,198.3c7.8-4.4,13.6-10.5,15.8-19.4c3.2-12.7-3.6-23.8-16.3-26.7c-9.2-2.1-17.2,0.7-23.9,7.1c-4.6,4.4-7.1,10.1-8.7,16.2
	c-0.6,2.3-1,4.7-1.8,7c-0.9,2.6-2.9,4-5.6,4.2c-1.3,0.1-2.7,0-4.1-0.2c-15.9-2.3-29.8-9.3-42.5-18.6c-7.9-5.7-14.6-12.8-20.9-20.3
	c-4-4.8-7.6-9.9-11.4-14.8c-1.5-2-3.2-3.9-5.7-4.9c-3.9-1.5-7.6,0.5-8,4.7c-0.2,1.9,0.1,3.9,0.6,5.8c0.9,3.5,2.9,6.6,5.2,9.4
	c4.7,5.8,9.4,11.6,14.2,17.3c1.8,2.2,3.8,4.2,5.8,6.2c4,3.9,8.8,6.8,13.6,9.6c6.3,3.7,12.5,7.4,19,10.7c4.1,2.1,8.6,3.2,12.8,5.1
	c11.3,4.9,23.1,7.4,33.7,7.5C244.3,204.5,253.1,202.9,261.3,198.3z"/>
</svg>
